<svg preserveAspectRatio="none" overflow="visible" style="display: block;" width="24.6575" height="22.5029" viewBox="0 0 24.6575 22.5029" fill="none" xmlns="http://www.w3.org/2000/svg">
<g id="Group">
<path id="Vector" fill-rule="evenodd" clip-rule="evenodd" d="M22.1776 15.3564C22.1776 14.5916 21.8738 13.8581 21.333 13.3173C20.7922 12.7765 20.0587 12.4727 19.294 12.4727H19.2907C18.5259 12.4727 17.7924 12.7765 17.2516 13.3173C16.7108 13.8581 16.407 14.5916 16.407 15.3564C16.407 16.6457 16.407 18.3299 16.407 19.6192C16.407 20.384 16.7108 21.1174 17.2516 21.6582C17.7924 22.199 18.5259 22.5029 19.2907 22.5029H19.294C20.0587 22.5029 20.7922 22.199 21.333 21.6582C21.8738 21.1174 22.1776 20.384 22.1776 19.6192V15.3564ZM8.25015 15.3564C8.25018 14.5916 7.94634 13.8581 7.40554 13.3173C6.86475 12.7765 6.13129 12.4727 5.36647 12.4727H5.36323C4.59844 12.4727 3.86495 12.7765 3.32415 13.3173C2.78336 13.8581 2.47955 14.5916 2.47955 15.3564C2.47955 16.6457 2.47955 18.3299 2.47955 19.6192C2.47955 20.384 2.78336 21.1174 3.32415 21.6582C3.86495 22.199 4.59844 22.5029 5.36323 22.5029H5.36647C6.13129 22.5029 6.86475 22.199 7.40554 21.6582C7.94634 21.1174 8.25018 20.384 8.25015 19.6192V15.3564ZM20.3067 15.3564V19.6192C20.3067 19.8878 20.2 20.1454 20.0101 20.3353C19.8202 20.5253 19.5626 20.6319 19.294 20.632C19.2939 20.632 19.2907 20.632 19.2907 20.632C19.0221 20.6319 18.7645 20.5253 18.5746 20.3353C18.3846 20.1454 18.2779 19.8878 18.2779 19.6192V15.3564C18.2779 15.0878 18.3846 14.8302 18.5746 14.6402C18.7645 14.4503 19.0221 14.3436 19.2907 14.3436C19.2908 14.3436 19.2939 14.3436 19.2939 14.3436C19.5626 14.3436 19.8202 14.4503 20.0101 14.6402C20.2 14.8302 20.3067 15.0878 20.3067 15.3564ZM6.37924 15.3564V19.6192C6.37924 19.8878 6.27255 20.1454 6.08262 20.3353C5.89268 20.5253 5.6351 20.6319 5.36653 20.632C5.36641 20.632 5.36326 20.632 5.36326 20.632C5.0946 20.6319 4.83701 20.5253 4.64711 20.3353C4.45717 20.1454 4.35046 19.8878 4.35046 19.6192V15.3564C4.35046 15.0878 4.45717 14.8302 4.64711 14.6402C4.83701 14.4503 5.0946 14.3436 5.3632 14.3436C5.36332 14.3436 5.36647 14.3436 5.36647 14.3436C5.6351 14.3436 5.89268 14.4503 6.08262 14.6402C6.27255 14.8302 6.37924 15.0878 6.37924 15.3564Z" fill="#2063F0" fill-opacity="0.5"/>
<path id="Vector_2" fill-rule="evenodd" clip-rule="evenodd" d="M24.6575 17.5432V10.9136C24.6575 4.88618 19.7713 0 13.7439 0C12.8048 0 11.8527 0 10.9136 0C4.88618 0 0 4.88618 0 10.9136C0 14.4384 0 17.5432 0 17.5432C0 18.0596 0.419143 18.4787 0.935453 18.4787C1.45173 18.4787 1.87091 18.0596 1.87091 17.5432V10.9136C1.87094 5.91943 5.91949 1.87091 10.9136 1.87091C11.8527 1.87091 12.8048 1.87091 13.7439 1.87091C18.7381 1.87091 22.7866 5.91943 22.7866 10.9136C22.7866 10.9136 22.7866 17.5432 22.7866 17.5432C22.7866 18.0596 23.2058 18.4787 23.7221 18.4787C24.2384 18.4787 24.6575 18.0596 24.6575 17.5432ZM9.54327 4.6564H14.5572C15.0734 4.6564 15.4926 4.23723 15.4926 3.72095C15.4926 3.20464 15.0734 2.7855 14.5572 2.7855H9.54327C9.02696 2.7855 8.60782 3.20464 8.60782 3.72095C8.60782 4.23723 9.02696 4.6564 9.54327 4.6564Z" fill="#2063F0"/>
</g>
</svg>
